<svg width="11" height="13" viewBox="0 0 11 13" fill="none" xmlns="http://www.w3.org/2000/svg">
<path d="M6.06604 11.0073L6.06604 3.42133L8.36446 5.71432C8.61613 5.97428 8.98881 6.07854 9.33927 5.98702C9.68973 5.89551 9.96342 5.62246 10.0551 5.27283C10.1469 4.9232 10.0424 4.5514 9.78181 4.30033L5.77235 0.300326C5.5843 0.112243 5.32896 0.00653839 5.06267 0.00653839C4.79639 0.00653839 4.54105 0.112243 4.353 0.300326L0.343541 4.30033C-0.0478475 4.69134 -0.0473988 5.32486 0.344543 5.71533C0.736486 6.10579 1.3715 6.10534 1.76289 5.71432L4.06131 3.42133L4.06131 11.0073C4.06131 11.5596 4.51009 12.0073 5.06368 12.0073C5.61727 12.0073 6.06604 11.5596 6.06604 11.0073Z" fill="#53D051"/>
</svg>
