<svg width="10" height="10" viewBox="0 0 10 10" fill="none" xmlns="http://www.w3.org/2000/svg">
<path d="M2.1875 0C2.27038 0 2.34987 0.032924 2.40847 0.0915291C2.46708 0.150134 2.5 0.22962 2.5 0.3125V0.625H7.5V0.3125C7.5 0.22962 7.53292 0.150134 7.59153 0.0915291C7.65013 0.032924 7.72962 0 7.8125 0C7.89538 0 7.97487 0.032924 8.03347 0.0915291C8.09208 0.150134 8.125 0.22962 8.125 0.3125V0.625H8.75C9.08152 0.625 9.39946 0.756696 9.63388 0.991117C9.8683 1.22554 10 1.54348 10 1.875V8.75C10 9.08152 9.8683 9.39946 9.63388 9.63388C9.39946 9.8683 9.08152 10 8.75 10H1.25C0.918479 10 0.600537 9.8683 0.366117 9.63388C0.131696 9.39946 0 9.08152 0 8.75V1.875C0 1.54348 0.131696 1.22554 0.366117 0.991117C0.600537 0.756696 0.918479 0.625 1.25 0.625H1.875V0.3125C1.875 0.22962 1.90792 0.150134 1.96653 0.0915291C2.02513 0.032924 2.10462 0 2.1875 0V0ZM0.625 2.5V8.75C0.625 8.91576 0.690848 9.07473 0.808058 9.19194C0.925268 9.30915 1.08424 9.375 1.25 9.375H8.75C8.91576 9.375 9.07473 9.30915 9.19194 9.19194C9.30915 9.07473 9.375 8.91576 9.375 8.75V2.5H0.625Z" fill="white"/>
</svg>
