<svg width="14" height="14" viewBox="0 0 14 14" fill="none" xmlns="http://www.w3.org/2000/svg">
<path d="M3.5 0.4375C3.5 0.321468 3.45391 0.210188 3.37186 0.128141C3.28981 0.0460936 3.17853 0 3.0625 0C2.94647 0 2.83519 0.0460936 2.75314 0.128141C2.67109 0.210188 2.625 0.321468 2.625 0.4375V0.875H1.75C1.28587 0.875 0.840752 1.05937 0.512563 1.38756C0.184374 1.71575 0 2.16087 0 2.625L0 3.5H14V2.625C14 2.16087 13.8156 1.71575 13.4874 1.38756C13.1592 1.05937 12.7141 0.875 12.25 0.875H11.375V0.4375C11.375 0.321468 11.3289 0.210188 11.2469 0.128141C11.1648 0.0460936 11.0535 0 10.9375 0C10.8215 0 10.7102 0.0460936 10.6281 0.128141C10.5461 0.210188 10.5 0.321468 10.5 0.4375V0.875H3.5V0.4375ZM14 12.25V4.375H0V12.25C0 12.7141 0.184374 13.1592 0.512563 13.4874C0.840752 13.8156 1.28587 14 1.75 14H12.25C12.7141 14 13.1592 13.8156 13.4874 13.4874C13.8156 13.1592 14 12.7141 14 12.25ZM8.3125 6.125H9.1875C9.30353 6.125 9.41481 6.17109 9.49686 6.25314C9.57891 6.33519 9.625 6.44647 9.625 6.5625V7.4375C9.625 7.55353 9.57891 7.66481 9.49686 7.74686C9.41481 7.82891 9.30353 7.875 9.1875 7.875H8.3125C8.19647 7.875 8.08519 7.82891 8.00314 7.74686C7.92109 7.66481 7.875 7.55353 7.875 7.4375V6.5625C7.875 6.44647 7.92109 6.33519 8.00314 6.25314C8.08519 6.17109 8.19647 6.125 8.3125 6.125ZM10.9375 6.125H11.8125C11.9285 6.125 12.0398 6.17109 12.1219 6.25314C12.2039 6.33519 12.25 6.44647 12.25 6.5625V7.4375C12.25 7.55353 12.2039 7.66481 12.1219 7.74686C12.0398 7.82891 11.9285 7.875 11.8125 7.875H10.9375C10.8215 7.875 10.7102 7.82891 10.6281 7.74686C10.5461 7.66481 10.5 7.55353 10.5 7.4375V6.5625C10.5 6.44647 10.5461 6.33519 10.6281 6.25314C10.7102 6.17109 10.8215 6.125 10.9375 6.125ZM1.75 9.1875C1.75 9.07147 1.79609 8.96019 1.87814 8.87814C1.96019 8.79609 2.07147 8.75 2.1875 8.75H3.0625C3.17853 8.75 3.28981 8.79609 3.37186 8.87814C3.45391 8.96019 3.5 9.07147 3.5 9.1875V10.0625C3.5 10.1785 3.45391 10.2898 3.37186 10.3719C3.28981 10.4539 3.17853 10.5 3.0625 10.5H2.1875C2.07147 10.5 1.96019 10.4539 1.87814 10.3719C1.79609 10.2898 1.75 10.1785 1.75 10.0625V9.1875ZM4.8125 8.75H5.6875C5.80353 8.75 5.91481 8.79609 5.99686 8.87814C6.07891 8.96019 6.125 9.07147 6.125 9.1875V10.0625C6.125 10.1785 6.07891 10.2898 5.99686 10.3719C5.91481 10.4539 5.80353 10.5 5.6875 10.5H4.8125C4.69647 10.5 4.58519 10.4539 4.50314 10.3719C4.42109 10.2898 4.375 10.1785 4.375 10.0625V9.1875C4.375 9.07147 4.42109 8.96019 4.50314 8.87814C4.58519 8.79609 4.69647 8.75 4.8125 8.75Z" fill="#9769CC"/>
</svg>
