<svg width="14" height="16" viewBox="0 0 14 16" fill="none" xmlns="http://www.w3.org/2000/svg">
<path d="M14 2.33332V3.74998C14 4.99843 10.8646 6.01665 7 6.01665C3.13541 6.01665 0 4.99843 0 3.74998V2.33332C0 1.08487 3.13541 0.0666504 7 0.0666504C10.8646 0.0666504 14 1.08487 14 2.33332ZM14 5.52082V8.70831C14 9.95676 10.8646 10.975 7 10.975C3.13541 10.975 0 9.95676 0 8.70831V5.52082C1.50391 6.5479 4.2565 7.02604 7 7.02604C9.7435 7.02604 12.4961 6.5479 14 5.52082ZM14 10.4791V13.6666C14 14.9151 10.8646 15.9333 7 15.9333C3.13541 15.9333 0 14.9151 0 13.6666V10.4791C1.50391 11.5062 4.2565 11.9844 7 11.9844C9.7435 11.9844 12.4961 11.5062 14 10.4791Z" fill="white"/>
</svg>
