<svg width="13" height="14" viewBox="0 0 13 14" fill="none" xmlns="http://www.w3.org/2000/svg">
<path d="M7.24425 0.294112C7.04311 0.105238 6.7768 0 6.5 0C6.2232 0 5.95689 0.105238 5.75575 0.294112L0.508084 5.21997C0.347406 5.37099 0.219464 5.553 0.132098 5.75485C0.044732 5.95671 -0.00021837 6.17415 7.97606e-07 6.39387V12.3871C0.00028799 12.815 0.17162 13.2252 0.476335 13.5277C0.781051 13.8301 1.19421 14 1.625 14H3.25C3.68098 14 4.0943 13.83 4.39905 13.5273C4.7038 13.2246 4.875 12.8141 4.875 12.386V9.69606C4.875 9.55338 4.93207 9.41654 5.03365 9.31565C5.13523 9.21475 5.27301 9.15807 5.41667 9.15807H7.58333C7.72699 9.15807 7.86477 9.21475 7.96635 9.31565C8.06793 9.41654 8.125 9.55338 8.125 9.69606V12.386C8.125 12.8141 8.29621 13.2246 8.60095 13.5273C8.9057 13.83 9.31902 14 9.75 14H11.375C11.806 14 12.2193 13.83 12.524 13.5273C12.8288 13.2246 13 12.8141 13 12.386V6.39279C12.9999 6.17318 12.9547 5.95589 12.8672 5.75423C12.7796 5.55256 12.6516 5.37077 12.4908 5.21997L7.24425 0.29196V0.294112Z" fill="#9769CC"/>
</svg>
