<svg width="14" height="16" viewBox="0 0 14 16" fill="none" xmlns="http://www.w3.org/2000/svg">
<path d="M7.00039 0C7.7188 -5.3517e-07 8.40973 0.262957 8.93026 0.734482C9.4508 1.20601 9.76112 1.85003 9.79704 2.53333L9.80054 2.66667H13.3007C13.4792 2.66686 13.6508 2.73192 13.7805 2.84857C13.9103 2.96521 13.9883 3.12464 13.9988 3.29426C14.0093 3.46389 13.9513 3.63092 13.8368 3.76122C13.7223 3.89152 13.5598 3.97526 13.3826 3.99533L13.3007 4H12.7064L11.8804 13.702C11.8271 14.328 11.5283 14.9121 11.0434 15.3379C10.5586 15.7637 9.92316 16 9.26361 16H4.73716C4.07762 16 3.44222 15.7637 2.95736 15.3379C2.4725 14.9121 2.17371 14.328 2.12042 13.702L1.29367 4H0.700039C0.528576 3.99998 0.363084 3.94003 0.234953 3.83152C0.106821 3.72302 0.0249614 3.5735 0.00490025 3.41133L0 3.33333C2.26186e-05 3.17004 0.0629727 3.01244 0.17691 2.89042C0.290848 2.7684 0.447849 2.69044 0.618134 2.67133L0.700039 2.66667H4.20023C4.20023 1.95942 4.49525 1.28115 5.02038 0.781049C5.54551 0.280952 6.25774 0 7.00039 0ZM5.4253 6.16667C5.29843 6.16667 5.17585 6.21043 5.08023 6.28984C4.98461 6.36926 4.92243 6.47896 4.90517 6.59867L4.90027 6.66667V12L4.90517 12.068C4.92246 12.1877 4.98466 12.2973 5.08028 12.3767C5.17589 12.4561 5.29845 12.4998 5.4253 12.4998C5.55215 12.4998 5.67471 12.4561 5.77032 12.3767C5.86594 12.2973 5.92814 12.1877 5.94543 12.068L5.95033 12V6.66667L5.94543 6.59867C5.92817 6.47896 5.86599 6.36926 5.77037 6.28984C5.67475 6.21043 5.55217 6.16667 5.4253 6.16667ZM8.57547 6.16667C8.4486 6.16667 8.32602 6.21043 8.2304 6.28984C8.13479 6.36926 8.0726 6.47896 8.05535 6.59867L8.05045 6.66667V12L8.05535 12.068C8.07264 12.1877 8.13484 12.2973 8.23045 12.3767C8.32607 12.4561 8.44863 12.4998 8.57547 12.4998C8.70232 12.4998 8.82488 12.4561 8.9205 12.3767C9.01611 12.2973 9.07831 12.1877 9.0956 12.068L9.1005 12V6.66667L9.0956 6.59867C9.07835 6.47896 9.01616 6.36926 8.92055 6.28984C8.82493 6.21043 8.70235 6.16667 8.57547 6.16667ZM7.00039 1.33333C6.64716 1.33323 6.30695 1.46027 6.04795 1.689C5.78895 1.91772 5.6303 2.23123 5.60381 2.56667L5.60031 2.66667H8.40047L8.39697 2.56667C8.37047 2.23123 8.21183 1.91772 7.95282 1.689C7.69382 1.46027 7.35361 1.33323 7.00039 1.33333Z" fill="#BFBFBF"/>
</svg>
