<svg width="14" height="12" viewBox="0 0 14 12" fill="none" xmlns="http://www.w3.org/2000/svg">
<path d="M6.125 11.25C6.125 11.25 5.25 11.25 5.25 10.375C5.25 9.5 6.125 6.875 9.625 6.875C13.125 6.875 14 9.5 14 10.375C14 11.25 13.125 11.25 13.125 11.25H6.125ZM9.625 6C10.3212 6 10.9889 5.72344 11.4812 5.23116C11.9734 4.73887 12.25 4.07119 12.25 3.375C12.25 2.67881 11.9734 2.01113 11.4812 1.51884C10.9889 1.02656 10.3212 0.75 9.625 0.75C8.92881 0.75 8.26113 1.02656 7.76884 1.51884C7.27656 2.01113 7 2.67881 7 3.375C7 4.07119 7.27656 4.73887 7.76884 5.23116C8.26113 5.72344 8.92881 6 9.625 6Z" fill="white"/>
<path fill-rule="evenodd" clip-rule="evenodd" d="M4.564 11.2499C4.43429 10.9767 4.3696 10.6772 4.375 10.3749C4.375 9.18926 4.97 7.96864 6.069 7.11989C5.52046 6.95087 4.94896 6.86821 4.375 6.87489C0.875 6.87489 0 9.49989 0 10.3749C0 11.2499 0.875 11.2499 0.875 11.2499H4.564Z" fill="white"/>
<path d="M3.9375 6C4.51766 6 5.07406 5.76953 5.4843 5.3593C5.89453 4.94906 6.125 4.39266 6.125 3.8125C6.125 3.23234 5.89453 2.67594 5.4843 2.2657C5.07406 1.85547 4.51766 1.625 3.9375 1.625C3.35734 1.625 2.80094 1.85547 2.3907 2.2657C1.98047 2.67594 1.75 3.23234 1.75 3.8125C1.75 4.39266 1.98047 4.94906 2.3907 5.3593C2.80094 5.76953 3.35734 6 3.9375 6Z" fill="white"/>
</svg>
