<svg width="300" height="66" viewBox="0 0 300 66" fill="none" xmlns="http://www.w3.org/2000/svg">
<path d="M50.1753 28.8728V27.1803C50.8629 27.1979 51.9119 27.2243 53.3224 27.2596L58.4 27.3918C59.405 27.3918 60.9653 27.3566 63.081 27.286C65.8314 27.1803 67.427 27.1274 67.8678 27.1274C71.2352 27.1274 73.6859 27.4271 75.2198 28.0265C76.7713 28.626 77.9702 29.6045 78.8165 30.962C79.6627 32.302 80.0859 33.7653 80.0859 35.3521C80.0859 36.8331 79.6892 38.3053 78.8958 39.7686C78.1024 41.232 76.9476 42.4485 75.4313 43.4182C73.9327 44.3879 71.9757 45.1372 69.5603 45.6661C70.0011 46.2832 71.0413 47.6584 72.681 49.7917L79.3454 58.5718C81.2495 61.0225 82.3602 62.3889 82.6776 62.671C82.8363 62.7944 82.9949 62.8825 83.1536 62.9354C83.4181 63.0236 83.9999 63.0677 84.8991 63.0677V64.7602C83.5591 64.6544 82.3867 64.6015 81.3817 64.6015C80.3415 64.6015 79.0633 64.6544 77.547 64.7602C76.401 63.4379 74.4793 60.855 71.7818 57.0115C70.2832 54.8782 68.9609 53.0975 67.8149 51.6694C65.9636 49.3068 64.2006 47.1647 62.5256 45.243L62.7901 44.4496C63.7069 44.5025 64.4033 44.5289 64.8793 44.5289C68.0881 44.5289 70.5212 43.7708 72.1785 42.2545C73.8358 40.7383 74.6644 38.7372 74.6644 36.2513C74.6644 34.0827 73.9504 32.3637 72.5223 31.0943C71.0942 29.8072 68.9344 29.1637 66.043 29.1637C64.227 29.1637 62.4463 29.437 60.7009 29.9835C60.6303 30.9356 60.5774 31.826 60.5422 32.6546C60.5245 32.9014 60.4628 35.4667 60.3571 40.3504V52.0925C60.3571 54.4903 60.3923 56.8264 60.4628 59.1007C60.4981 60.7757 60.6127 61.7718 60.8066 62.0891C61.0182 62.4065 61.3532 62.6445 61.8116 62.8032C62.27 62.9442 63.5394 63.0324 65.6198 63.0677V64.7602C63.1163 64.6192 60.8155 64.5486 58.7174 64.5486C57.0248 64.5486 54.1775 64.6192 50.1753 64.7602V63.0677C52.2557 63.0324 53.5251 62.9442 53.9835 62.8032C54.4419 62.6445 54.7593 62.4329 54.9356 62.1685C55.1472 61.8159 55.2794 60.9608 55.3323 59.6032C55.3499 59.233 55.3852 56.7294 55.4381 52.0925V39.8479C55.4381 37.4502 55.4116 35.1053 55.3587 32.8133C55.3058 31.1384 55.1736 30.151 54.962 29.8513C54.7681 29.534 54.4419 29.3048 53.9835 29.1637C53.5428 29.005 52.2734 28.9081 50.1753 28.8728ZM107.493 60.6611L106.647 62.5652C105.43 63.3233 104.54 63.8258 103.976 64.0726C103.147 64.4429 102.195 64.7514 101.12 64.9982C100.062 65.2627 98.9423 65.3949 97.7611 65.3949C95.4338 65.3949 93.3269 64.9101 91.4404 63.9404C89.554 62.9707 88.0818 61.525 87.0239 59.6032C85.9837 57.6638 85.4636 55.3983 85.4636 52.8066C85.4636 50.779 85.7369 48.9542 86.2834 47.3322C86.8476 45.6925 87.4823 44.4848 88.1876 43.7091C88.6989 43.1449 89.4922 42.5014 90.5677 41.7785C91.6432 41.038 92.7099 40.4562 93.7677 40.0331C95.1605 39.4513 96.668 39.1603 98.29 39.1603C100.265 39.1603 102.045 39.6099 103.632 40.5091C105.237 41.4083 106.409 42.6336 107.149 44.1851C107.89 45.7366 108.26 47.4909 108.26 49.4479C108.26 49.9416 108.225 50.541 108.154 51.2462C106.885 51.4931 105.748 51.6517 104.743 51.7223C102.839 51.8633 100.935 51.9338 99.0305 51.9338H90.5413C90.5765 54.455 91.0085 56.5002 91.8371 58.0693C92.6834 59.6208 93.8382 60.7668 95.3016 61.5073C96.7826 62.2478 98.3164 62.6181 99.9032 62.6181C100.979 62.6181 102.045 62.4506 103.103 62.1156C104.179 61.763 105.501 61.1283 107.07 60.2115L107.493 60.6611ZM90.5413 49.8446C91.0349 49.8975 91.9694 49.9504 93.3446 50.0033C95.9715 50.0914 97.7787 50.1355 98.766 50.1355C101.111 50.1355 102.654 50.0914 103.394 50.0033C103.412 49.5801 103.421 49.254 103.421 49.0248C103.421 46.2391 102.856 44.1939 101.728 42.8893C100.6 41.5846 99.0922 40.9322 97.2057 40.9322C95.2134 40.9322 93.609 41.6463 92.3925 43.0744C91.176 44.5025 90.5589 46.7592 90.5413 49.8446ZM114.775 46.6446L113.373 46.2744C113.391 45.8689 113.4 45.3135 113.4 44.6083C113.4 43.8678 113.391 43.2771 113.373 42.8364C115.613 41.373 117.446 40.3857 118.874 39.8744C119.967 39.5041 121.193 39.319 122.55 39.319C124.56 39.319 126.253 39.6981 127.628 40.4562C129.003 41.2143 130.026 42.2986 130.696 43.7091C131.154 44.6964 131.383 46.0452 131.383 47.7553L131.278 52.595V60.4759C131.278 61.3222 131.348 61.9305 131.489 62.3007C131.595 62.5652 131.762 62.7591 131.992 62.8825C132.168 62.9883 132.538 63.0588 133.102 63.0941L134.821 63.2528V64.7602C133.376 64.6368 132.106 64.5751 131.013 64.5751C129.955 64.5751 128.545 64.6368 126.782 64.7602L126.914 60.1057C123.317 62.8208 121.184 64.3547 120.514 64.7073C119.844 65.0423 118.998 65.2098 117.975 65.2098C115.842 65.2098 114.176 64.6456 112.977 63.5172C111.796 62.3712 111.205 60.855 111.205 58.9685C111.205 57.752 111.408 56.6412 111.813 55.6363C112.236 54.6313 112.739 53.838 113.321 53.2561C113.902 52.6567 114.493 52.2159 115.092 51.9338C116.115 51.4578 117.772 50.9465 120.064 50.4C122.374 49.8534 124.657 49.4479 126.914 49.1834C126.932 47.5085 126.729 46.2038 126.306 45.2694C125.882 44.335 125.168 43.568 124.163 42.9686C123.159 42.3691 121.933 42.0694 120.487 42.0694C119.447 42.0694 118.53 42.2105 117.737 42.4926C116.961 42.7747 116.485 43.0127 116.309 43.2066L115.833 44.1587C115.357 45.2165 115.004 46.0452 114.775 46.6446ZM126.914 50.7966C124.622 51.1845 122.665 51.6165 121.043 52.0925C119.421 52.5685 118.275 53.0622 117.605 53.5735C117.199 53.8732 116.847 54.3228 116.547 54.9222C116.089 55.8038 115.859 56.7823 115.859 57.8578C115.859 59.1624 116.221 60.185 116.944 60.9255C117.667 61.6484 118.672 62.0098 119.959 62.0098C121.14 62.0098 122.303 61.6748 123.449 61.0049C124.613 60.3173 125.768 59.2947 126.914 57.9371V50.7966ZM136.417 64.7602V63.2528L138.903 63.2263C139.291 63.2087 139.582 63.147 139.776 63.0412C139.987 62.9178 140.146 62.7679 140.252 62.5916C140.446 62.239 140.56 61.6131 140.596 60.7139C140.613 60.4847 140.675 57.9547 140.781 53.1239V42.1488C140.781 39.2044 140.728 36.1631 140.622 33.0248C140.552 30.9092 140.455 29.7279 140.331 29.4811C140.243 29.3048 140.102 29.1813 139.908 29.1108C139.644 28.9874 138.427 28.9257 136.259 28.9257V27.3654C140.243 26.8717 143.011 26.2546 144.563 25.5141C144.792 25.4084 144.968 25.3555 145.092 25.3555C145.215 25.3555 145.312 25.3995 145.382 25.4877C145.453 25.5582 145.488 25.664 145.488 25.8051C145.488 25.9285 145.471 26.1048 145.435 26.334L145.409 27.2067C145.321 30.3626 145.268 33.0513 145.25 35.2728L145.197 39.3984V53.1239C145.286 57.7079 145.338 60.185 145.356 60.5553C145.374 61.4368 145.479 62.0803 145.673 62.4858C145.744 62.6445 145.85 62.7856 145.991 62.909C146.132 63.0148 146.343 63.1029 146.625 63.1734C146.749 63.1911 147.727 63.2175 149.561 63.2528V64.7602C147.163 64.6192 145.056 64.5486 143.24 64.5486C141.513 64.5486 139.238 64.6192 136.417 64.7602ZM164.151 64.7602V63.0941C166.002 63.0765 167.219 62.9354 167.801 62.671C168.048 62.5652 168.224 62.3977 168.33 62.1685C168.506 61.8159 168.629 60.8903 168.7 59.3916C168.806 57.0644 168.859 55.0545 168.859 53.3619V39.8479C168.859 37.4502 168.832 35.1053 168.779 32.8133C168.726 31.1384 168.594 30.151 168.383 29.8513C168.189 29.534 167.862 29.3048 167.404 29.1637C166.963 29.005 165.694 28.9081 163.596 28.8728V27.1803L171.133 27.3389L179.12 27.2067C182.946 27.1538 185.722 27.1274 187.45 27.1274C189.196 27.1274 190.844 27.2243 192.396 27.4183C192.114 28.4232 191.92 29.2959 191.814 30.0364C191.779 30.1951 191.62 32.0287 191.338 35.5372H189.672C189.689 33.7389 189.575 32.0992 189.328 30.6182C188.358 30.2127 187.292 29.9395 186.128 29.7984C184.153 29.5516 182.179 29.4282 180.204 29.4282C179.781 29.4282 178.838 29.4634 177.374 29.534C175.911 29.6045 174.862 29.6662 174.227 29.7191C174.157 31.6761 174.104 33.5097 174.068 35.2199L173.963 44.1587C176.025 44.2645 177.921 44.3173 179.649 44.3173C181.747 44.3173 183.536 44.2204 185.017 44.0264C185.581 43.9559 185.943 43.8149 186.101 43.6033C186.26 43.3917 186.401 42.6689 186.525 41.4347L186.683 39.5835H188.27V40.086L188.138 45.5868L188.27 51.7487H186.419L186.339 49.9504C186.304 48.6457 186.181 47.8347 185.969 47.5173C185.775 47.2 185.396 46.9796 184.832 46.8562C183.827 46.6446 181.879 46.5388 178.987 46.5388C177.806 46.5388 176.131 46.5829 173.963 46.6711C173.875 48.4341 173.83 51.0523 173.83 54.5256C173.83 57.7872 173.875 60.2644 173.963 61.9569C176.501 62.1509 179.349 62.2478 182.505 62.2478C184.744 62.2478 186.339 62.1773 187.292 62.0363C188.244 61.8952 189.125 61.6572 189.936 61.3222C190.148 60.7757 190.359 60.0352 190.571 59.1007C190.959 57.5316 191.214 56.3503 191.338 55.557H193.083C192.625 59.1184 192.396 62.0715 192.396 64.4164C190.879 64.6456 189.037 64.7602 186.868 64.7602L171.08 64.5486C170.851 64.5486 168.541 64.6192 164.151 64.7602ZM196.795 56.7735H198.382C198.399 57.7961 198.452 58.6071 198.54 59.2065C198.628 59.806 198.778 60.3966 198.99 60.9784C199.201 61.5426 199.528 62.0274 199.968 62.4329C200.409 62.8208 200.885 63.1294 201.396 63.3586C201.925 63.5701 202.454 63.7112 202.983 63.7817C203.53 63.8522 204.35 63.8875 205.443 63.8875C207.241 63.8875 208.713 63.4115 209.859 62.4594C211.023 61.5073 211.605 60.2027 211.605 58.5454C211.605 57.8049 211.42 57.1525 211.049 56.5884C210.697 56.0242 210.177 55.5834 209.489 55.266C208.819 54.9487 207.364 54.5344 205.125 54.0231C202.886 53.5118 201.441 53.1415 200.788 52.9123C199.801 52.5421 199.016 52.0925 198.435 51.5636C197.853 51.0347 197.385 50.3647 197.033 49.5537C196.698 48.7427 196.53 47.8611 196.53 46.9091C196.53 45.5162 196.892 44.238 197.615 43.0744C198.355 41.8931 199.51 40.9411 201.079 40.2182C202.648 39.4777 204.358 39.1075 206.21 39.1075C207.32 39.1075 208.607 39.2661 210.071 39.5835C211.534 39.8832 212.724 40.2623 213.641 40.7207C213.518 42.6777 213.429 44.67 213.377 46.6975H211.869C211.781 45.4105 211.675 44.5642 211.552 44.1587C211.446 43.7532 211.296 43.3917 211.102 43.0744C210.908 42.757 210.573 42.422 210.097 42.0694C209.621 41.6992 209.004 41.373 208.246 41.0909C207.506 40.8088 206.589 40.6678 205.496 40.6678C203.944 40.6678 202.692 41.1262 201.74 42.043C200.806 42.9598 200.339 44.0353 200.339 45.2694C200.339 45.957 200.471 46.5476 200.735 47.0413C201.017 47.535 201.388 47.9405 201.846 48.2578C202.304 48.5575 202.948 48.8308 203.777 49.0777L208.167 50.1619C210.388 50.7261 211.913 51.211 212.742 51.6165C213.588 52.022 214.267 52.6567 214.778 53.5206C215.29 54.3669 215.545 55.3895 215.545 56.5884C215.545 58.9685 214.558 61.0489 212.583 62.8296C210.626 64.5927 207.999 65.4743 204.702 65.4743C203.186 65.4743 201.167 65.2451 198.646 64.7867C197.253 64.5222 196.504 64.3371 196.398 64.2313C196.328 64.1784 196.292 64.0902 196.292 63.9668C196.292 63.8434 196.31 63.6935 196.345 63.5172C196.504 62.7591 196.61 62.0186 196.663 61.2958C196.716 60.5729 196.76 59.0655 196.795 56.7735ZM217.458 44.0264V42.9157C219.222 42.2457 220.623 41.6463 221.663 41.1174C221.663 36.9212 221.611 34.2414 221.505 33.0777C223.338 32.443 224.828 31.7642 225.974 31.0414L226.609 31.5703C226.415 33.0337 226.203 36.2601 225.974 41.2496C227.385 41.2672 228.231 41.276 228.513 41.276C228.672 41.276 229.58 41.2584 231.237 41.2231C232.154 41.2055 232.841 41.1703 233.3 41.1174L233.485 41.3025L232.929 43.762C231.819 43.7443 230.796 43.7355 229.862 43.7355C228.927 43.7355 227.631 43.7443 225.974 43.762L225.815 54.5256C225.763 57.1525 225.78 58.7217 225.868 59.233C225.956 59.7443 226.124 60.1938 226.371 60.5817C226.618 60.952 226.935 61.2517 227.323 61.4809C227.728 61.7101 228.407 61.8864 229.359 62.0098C230.082 62.0098 230.664 61.9834 231.105 61.9305C231.563 61.8599 232.136 61.7013 232.824 61.4544L233.141 62.4858C232.312 63.1382 231.51 63.817 230.734 64.5222C230.064 64.769 229.439 64.9277 228.857 64.9982C228.275 65.0864 227.605 65.1305 226.847 65.1305C225.912 65.1305 225.163 65.0247 224.599 64.8131C224.052 64.6015 223.55 64.3106 223.091 63.9404C222.633 63.5525 222.254 63.0677 221.954 62.4858C221.655 61.904 221.461 60.9872 221.372 59.7354C221.39 58.5365 221.425 57.2231 221.478 55.795C221.496 55.5129 221.505 55.2043 221.505 54.8694V43.8942H220.42C219.539 43.8942 218.552 43.9383 217.458 44.0264ZM238.598 46.6446L237.196 46.2744C237.214 45.8689 237.223 45.3135 237.223 44.6083C237.223 43.8678 237.214 43.2771 237.196 42.8364C239.436 41.373 241.269 40.3857 242.697 39.8744C243.79 39.5041 245.016 39.319 246.373 39.319C248.383 39.319 250.076 39.6981 251.451 40.4562C252.826 41.2143 253.849 42.2986 254.519 43.7091C254.977 44.6964 255.206 46.0452 255.206 47.7553L255.1 52.595V60.4759C255.1 61.3222 255.171 61.9305 255.312 62.3007C255.418 62.5652 255.585 62.7591 255.815 62.8825C255.991 62.9883 256.361 63.0588 256.925 63.0941L258.644 63.2528V64.7602C257.199 64.6368 255.929 64.5751 254.836 64.5751C253.778 64.5751 252.368 64.6368 250.605 64.7602L250.737 60.1057C247.14 62.8208 245.007 64.3547 244.337 64.7073C243.667 65.0423 242.821 65.2098 241.798 65.2098C239.665 65.2098 237.999 64.6456 236.8 63.5172C235.619 62.3712 235.028 60.855 235.028 58.9685C235.028 57.752 235.231 56.6412 235.636 55.6363C236.059 54.6313 236.562 53.838 237.144 53.2561C237.725 52.6567 238.316 52.2159 238.915 51.9338C239.938 51.4578 241.595 50.9465 243.887 50.4C246.197 49.8534 248.48 49.4479 250.737 49.1834C250.755 47.5085 250.552 46.2038 250.129 45.2694C249.705 44.335 248.991 43.568 247.986 42.9686C246.982 42.3691 245.756 42.0694 244.31 42.0694C243.27 42.0694 242.353 42.2105 241.56 42.4926C240.784 42.7747 240.308 43.0127 240.132 43.2066L239.656 44.1587C239.18 45.2165 238.827 46.0452 238.598 46.6446ZM250.737 50.7966C248.445 51.1845 246.488 51.6165 244.866 52.0925C243.244 52.5685 242.098 53.0622 241.428 53.5735C241.022 53.8732 240.67 54.3228 240.37 54.9222C239.912 55.8038 239.682 56.7823 239.682 57.8578C239.682 59.1624 240.044 60.185 240.767 60.9255C241.49 61.6484 242.495 62.0098 243.782 62.0098C244.963 62.0098 246.126 61.6748 247.272 61.0049C248.436 60.3173 249.591 59.2947 250.737 57.9371V50.7966ZM260.108 44.0264V42.9157C261.871 42.2457 263.273 41.6463 264.313 41.1174C264.313 36.9212 264.26 34.2414 264.154 33.0777C265.988 32.443 267.478 31.7642 268.624 31.0414L269.258 31.5703C269.064 33.0337 268.853 36.2601 268.624 41.2496C270.034 41.2672 270.88 41.276 271.162 41.276C271.321 41.276 272.229 41.2584 273.886 41.2231C274.803 41.2055 275.491 41.1703 275.949 41.1174L276.134 41.3025L275.579 43.762C274.468 43.7443 273.446 43.7355 272.511 43.7355C271.577 43.7355 270.281 43.7443 268.624 43.762L268.465 54.5256C268.412 57.1525 268.43 58.7217 268.518 59.233C268.606 59.7443 268.774 60.1938 269.02 60.5817C269.267 60.952 269.585 61.2517 269.972 61.4809C270.378 61.7101 271.057 61.8864 272.009 62.0098C272.732 62.0098 273.313 61.9834 273.754 61.9305C274.213 61.8599 274.786 61.7013 275.473 61.4544L275.791 62.4858C274.962 63.1382 274.16 63.817 273.384 64.5222C272.714 64.769 272.088 64.9277 271.506 64.9982C270.924 65.0864 270.255 65.1305 269.496 65.1305C268.562 65.1305 267.813 65.0247 267.248 64.8131C266.702 64.6015 266.199 64.3106 265.741 63.9404C265.283 63.5525 264.904 63.0677 264.604 62.4858C264.304 61.904 264.11 60.9872 264.022 59.7354C264.04 58.5365 264.075 57.2231 264.128 55.795C264.145 55.5129 264.154 55.2043 264.154 54.8694V43.8942H263.07C262.188 43.8942 261.201 43.9383 260.108 44.0264ZM298.887 60.6611L298.041 62.5652C296.824 63.3233 295.934 63.8258 295.37 64.0726C294.541 64.4429 293.589 64.7514 292.514 64.9982C291.456 65.2627 290.336 65.3949 289.155 65.3949C286.828 65.3949 284.721 64.9101 282.834 63.9404C280.948 62.9707 279.476 61.525 278.418 59.6032C277.378 57.6638 276.858 55.3983 276.858 52.8066C276.858 50.779 277.131 48.9542 277.677 47.3322C278.242 45.6925 278.876 44.4848 279.582 43.7091C280.093 43.1449 280.886 42.5014 281.962 41.7785C283.037 41.038 284.104 40.4562 285.162 40.0331C286.555 39.4513 288.062 39.1603 289.684 39.1603C291.659 39.1603 293.439 39.6099 295.026 40.5091C296.63 41.4083 297.803 42.6336 298.543 44.1851C299.284 45.7366 299.654 47.4909 299.654 49.4479C299.654 49.9416 299.619 50.541 299.548 51.2462C298.279 51.4931 297.142 51.6517 296.137 51.7223C294.233 51.8633 292.329 51.9338 290.424 51.9338H281.935C281.971 54.455 282.402 56.5002 283.231 58.0693C284.077 59.6208 285.232 60.7668 286.696 61.5073C288.177 62.2478 289.71 62.6181 291.297 62.6181C292.373 62.6181 293.439 62.4506 294.497 62.1156C295.573 61.763 296.895 61.1283 298.464 60.2115L298.887 60.6611ZM281.935 49.8446C282.429 49.8975 283.363 49.9504 284.739 50.0033C287.366 50.0914 289.173 50.1355 290.16 50.1355C292.505 50.1355 294.048 50.0914 294.788 50.0033C294.806 49.5801 294.815 49.254 294.815 49.0248C294.815 46.2391 294.25 44.1939 293.122 42.8893C291.994 41.5846 290.486 40.9322 288.6 40.9322C286.607 40.9322 285.003 41.6463 283.786 43.0744C282.57 44.5025 281.953 46.7592 281.935 49.8446Z" fill="white"/>
<path d="M56.1617 27.0879V60.8884L36.4665 62.6399V43.3775H21.6952V62.6399L2 60.8884V60.7137V27.0879L29.0808 1L56.1617 27.0879Z" fill="#515274" stroke="white" stroke-width="2.70808" stroke-linecap="round" stroke-linejoin="bevel"/>
</svg>
