<svg width="14" height="14" viewBox="0 0 14 14" fill="none" xmlns="http://www.w3.org/2000/svg">
<path d="M11.9533 7.6535C11.98 7.44016 12 7.22683 12 7.00016C12 6.7735 11.98 6.56016 11.9533 6.34683L13.36 5.24683C13.4867 5.14683 13.52 4.96683 13.44 4.82016L12.1067 2.5135C12.0267 2.36683 11.8467 2.3135 11.7 2.36683L10.04 3.0335C9.69335 2.76683 9.32002 2.54683 8.91335 2.38016L8.66002 0.613496C8.64002 0.453496 8.50002 0.333496 8.33335 0.333496H5.66668C5.50002 0.333496 5.36002 0.453496 5.34002 0.613496L5.08668 2.38016C4.68002 2.54683 4.30668 2.7735 3.96002 3.0335L2.30001 2.36683C2.14668 2.30683 1.97335 2.36683 1.89335 2.5135L0.560015 4.82016C0.473348 4.96683 0.513348 5.14683 0.640015 5.24683L2.04668 6.34683C2.02002 6.56016 2.00002 6.78016 2.00002 7.00016C2.00002 7.22016 2.02002 7.44016 2.04668 7.6535L0.640015 8.7535C0.513348 8.8535 0.480015 9.0335 0.560015 9.18016L1.89335 11.4868C1.97335 11.6335 2.15335 11.6868 2.30001 11.6335L3.96002 10.9668C4.30668 11.2335 4.68002 11.4535 5.08668 11.6202L5.34002 13.3868C5.36002 13.5468 5.50002 13.6668 5.66668 13.6668H8.33335C8.50002 13.6668 8.64002 13.5468 8.66002 13.3868L8.91335 11.6202C9.32002 11.4535 9.69335 11.2268 10.04 10.9668L11.7 11.6335C11.8533 11.6935 12.0267 11.6335 12.1067 11.4868L13.44 9.18016C13.52 9.0335 13.4867 8.8535 13.36 8.7535L11.9533 7.6535ZM7.00002 9.3335C5.71335 9.3335 4.66668 8.28683 4.66668 7.00016C4.66668 5.7135 5.71335 4.66683 7.00002 4.66683C8.28668 4.66683 9.33335 5.7135 9.33335 7.00016C9.33335 8.28683 8.28668 9.3335 7.00002 9.3335Z" fill="#BFBFBF"/>
</svg>
