<svg width="111" height="25" viewBox="0 0 111 25" fill="none" xmlns="http://www.w3.org/2000/svg">
<path d="M18.7896 10.748V10.123C19.0435 10.1296 19.4308 10.1393 19.9517 10.1523L21.8267 10.2012C22.1978 10.2012 22.7739 10.1882 23.5552 10.1621C24.5708 10.123 25.16 10.1035 25.3228 10.1035C26.5662 10.1035 27.4712 10.2142 28.0376 10.4355C28.6105 10.6569 29.0532 11.0182 29.3657 11.5195C29.6782 12.0143 29.8345 12.5547 29.8345 13.1406C29.8345 13.6875 29.688 14.2311 29.395 14.7715C29.1021 15.3118 28.6756 15.7611 28.1157 16.1191C27.5623 16.4772 26.8397 16.7539 25.9478 16.9492C26.1105 17.1771 26.4946 17.6849 27.1001 18.4727L29.561 21.7148C30.2642 22.6198 30.6743 23.1243 30.7915 23.2285C30.8501 23.2741 30.9087 23.3066 30.9673 23.3262C31.0649 23.3587 31.2798 23.375 31.6118 23.375V24C31.117 23.9609 30.6841 23.9414 30.313 23.9414C29.9289 23.9414 29.4569 23.9609 28.897 24C28.4738 23.5117 27.7642 22.5579 26.7681 21.1387C26.2147 20.3509 25.7264 19.6934 25.3032 19.166C24.6196 18.2936 23.9686 17.5026 23.3501 16.793L23.4478 16.5C23.7863 16.5195 24.0435 16.5293 24.2192 16.5293C25.4041 16.5293 26.3026 16.2493 26.9146 15.6895C27.5265 15.1296 27.8325 14.3906 27.8325 13.4727C27.8325 12.6719 27.5688 12.0371 27.0415 11.5684C26.5142 11.0931 25.7166 10.8555 24.6489 10.8555C23.9784 10.8555 23.3208 10.9564 22.6763 11.1582C22.6502 11.5098 22.6307 11.8385 22.6177 12.1445C22.6112 12.2357 22.5884 13.1829 22.5493 14.9863V19.3223C22.5493 20.2077 22.5623 21.0703 22.5884 21.9102C22.6014 22.5286 22.6437 22.8965 22.7153 23.0137C22.7935 23.1309 22.9172 23.2188 23.0864 23.2773C23.2557 23.3294 23.7244 23.362 24.4927 23.375V24C23.5682 23.9479 22.7186 23.9219 21.9438 23.9219C21.3188 23.9219 20.2674 23.9479 18.7896 24V23.375C19.5578 23.362 20.0265 23.3294 20.1958 23.2773C20.3651 23.2188 20.4823 23.1406 20.5474 23.043C20.6255 22.9128 20.6743 22.597 20.6938 22.0957C20.7004 21.959 20.7134 21.0345 20.7329 19.3223V14.8008C20.7329 13.9154 20.7231 13.0495 20.7036 12.2031C20.6841 11.5846 20.6353 11.2201 20.5571 11.1094C20.4855 10.9922 20.3651 10.9076 20.1958 10.8555C20.033 10.7969 19.5643 10.7611 18.7896 10.748ZM39.9551 22.4863L39.6426 23.1895C39.1933 23.4694 38.8646 23.6549 38.6562 23.7461C38.3502 23.8828 37.9987 23.9967 37.6015 24.0879C37.2109 24.1855 36.7975 24.2344 36.3613 24.2344C35.5019 24.2344 34.7239 24.0553 34.0273 23.6973C33.3307 23.3392 32.7871 22.8053 32.3965 22.0957C32.0123 21.3796 31.8203 20.543 31.8203 19.5859C31.8203 18.8372 31.9212 18.1634 32.123 17.5645C32.3314 16.959 32.5657 16.513 32.8261 16.2266C33.0149 16.0182 33.3079 15.7806 33.7051 15.5137C34.1022 15.2402 34.4961 15.0254 34.8867 14.8691C35.401 14.6543 35.9577 14.5469 36.5566 14.5469C37.2858 14.5469 37.9433 14.7129 38.5293 15.0449C39.1217 15.377 39.5547 15.8294 39.8281 16.4023C40.1015 16.9753 40.2383 17.623 40.2383 18.3457C40.2383 18.528 40.2252 18.7493 40.1992 19.0098C39.7304 19.1009 39.3105 19.1595 38.9394 19.1855C38.2363 19.2376 37.5332 19.2637 36.8301 19.2637H33.6953C33.7083 20.1947 33.8678 20.9499 34.1738 21.5293C34.4863 22.1022 34.9127 22.5254 35.4531 22.7988C36 23.0723 36.5664 23.209 37.1523 23.209C37.5495 23.209 37.9433 23.1471 38.334 23.0234C38.7311 22.8932 39.2194 22.6589 39.7988 22.3203L39.9551 22.4863ZM33.6953 18.4922C33.8776 18.5117 34.2226 18.5312 34.7304 18.5508C35.7005 18.5833 36.3678 18.5996 36.7324 18.5996C37.5983 18.5996 38.1679 18.5833 38.4414 18.5508C38.4479 18.3945 38.4511 18.2741 38.4511 18.1895C38.4511 17.1608 38.2428 16.4056 37.8261 15.9238C37.4095 15.4421 36.8528 15.2012 36.1562 15.2012C35.4205 15.2012 34.8281 15.4648 34.3789 15.9922C33.9297 16.5195 33.7018 17.3529 33.6953 18.4922ZM42.644 17.3105L42.1264 17.1738C42.1329 17.0241 42.1362 16.819 42.1362 16.5586C42.1362 16.2852 42.1329 16.0671 42.1264 15.9043C42.9532 15.3639 43.6303 14.9993 44.1577 14.8105C44.5613 14.6738 45.0138 14.6055 45.5151 14.6055C46.2573 14.6055 46.8823 14.7454 47.3901 15.0254C47.8979 15.3053 48.2755 15.7057 48.5229 16.2266C48.6922 16.5911 48.7768 17.0892 48.7768 17.7207L48.7377 19.5078V22.418C48.7377 22.7305 48.7638 22.9551 48.8159 23.0918C48.8549 23.1895 48.9168 23.2611 49.0014 23.3066C49.0665 23.3457 49.2032 23.3717 49.4116 23.3848L50.0463 23.4434V24C49.5125 23.9544 49.0437 23.9316 48.6401 23.9316C48.2495 23.9316 47.7286 23.9544 47.0776 24L47.1264 22.2812C45.7983 23.2839 45.0105 23.8503 44.7631 23.9805C44.5157 24.1042 44.2032 24.166 43.8256 24.166C43.0379 24.166 42.4226 23.9577 41.9799 23.541C41.5437 23.1178 41.3256 22.5579 41.3256 21.8613C41.3256 21.4121 41.4005 21.002 41.5502 20.6309C41.7065 20.2598 41.892 19.9668 42.1069 19.752C42.3217 19.5306 42.5398 19.3678 42.7612 19.2637C43.1388 19.0879 43.7508 18.8991 44.5971 18.6973C45.45 18.4954 46.2931 18.3457 47.1264 18.248C47.1329 17.6296 47.0581 17.1478 46.9018 16.8027C46.7456 16.4577 46.4819 16.1745 46.1108 15.9531C45.7397 15.7318 45.2872 15.6211 44.7534 15.6211C44.3692 15.6211 44.0307 15.6732 43.7377 15.7773C43.4513 15.8815 43.2755 15.9694 43.2104 16.041L43.0346 16.3926C42.8588 16.7832 42.7286 17.0892 42.644 17.3105ZM47.1264 18.8438C46.2801 18.987 45.5574 19.1465 44.9584 19.3223C44.3595 19.498 43.9363 19.6803 43.6889 19.8691C43.5392 19.9798 43.409 20.1458 43.2983 20.3672C43.129 20.6927 43.0444 21.054 43.0444 21.4512C43.0444 21.9329 43.1778 22.3105 43.4448 22.584C43.7117 22.8509 44.0828 22.9844 44.5581 22.9844C44.9942 22.9844 45.4239 22.8607 45.8471 22.6133C46.2768 22.3594 46.7032 21.9818 47.1264 21.4805V18.8438ZM50.6357 24V23.4434L51.5536 23.4336C51.6969 23.4271 51.8043 23.4043 51.8759 23.3652C51.954 23.3197 52.0126 23.2643 52.0517 23.1992C52.1233 23.069 52.1656 22.8379 52.1786 22.5059C52.1851 22.4212 52.2079 21.487 52.247 19.7031V15.6504C52.247 14.5632 52.2275 13.4401 52.1884 12.2812C52.1624 11.5 52.1265 11.0638 52.081 10.9727C52.0484 10.9076 51.9963 10.862 51.9247 10.8359C51.8271 10.7904 51.3778 10.7676 50.5771 10.7676V10.1914C52.0484 10.0091 53.0706 9.78125 53.6435 9.50781C53.7281 9.46875 53.7932 9.44922 53.8388 9.44922C53.8844 9.44922 53.9202 9.46549 53.9462 9.49805C53.9723 9.52409 53.9853 9.56315 53.9853 9.61523C53.9853 9.66081 53.9788 9.72591 53.9657 9.81055L53.956 10.1328C53.9234 11.2982 53.9039 12.291 53.8974 13.1113L53.8778 14.6348V19.7031C53.9104 21.3958 53.9299 22.3105 53.9364 22.4473C53.943 22.7728 53.982 23.0104 54.0536 23.1602C54.0797 23.2188 54.1187 23.2708 54.1708 23.3164C54.2229 23.3555 54.301 23.388 54.4052 23.4141C54.4508 23.4206 54.8121 23.4303 55.4892 23.4434V24C54.6038 23.9479 53.8258 23.9219 53.1552 23.9219C52.5172 23.9219 51.6773 23.9479 50.6357 24ZM60.8768 24V23.3848C61.5604 23.3783 62.0096 23.3262 62.2245 23.2285C62.3156 23.1895 62.3807 23.1276 62.4198 23.043C62.4849 22.9128 62.5305 22.571 62.5565 22.0176C62.5956 21.1582 62.6151 20.416 62.6151 19.791V14.8008C62.6151 13.9154 62.6053 13.0495 62.5858 12.2031C62.5663 11.5846 62.5174 11.2201 62.4393 11.1094C62.3677 10.9922 62.2473 10.9076 62.078 10.8555C61.9152 10.7969 61.4465 10.7611 60.6717 10.748V10.123L63.4549 10.1816L66.4042 10.1328C67.8169 10.1133 68.8423 10.1035 69.4803 10.1035C70.1249 10.1035 70.7336 10.1393 71.3065 10.2109C71.2023 10.582 71.1307 10.9043 71.0917 11.1777C71.0786 11.2363 71.0201 11.9134 70.9159 13.209H70.3006C70.3072 12.5449 70.2648 11.9395 70.1737 11.3926C69.8156 11.2428 69.4217 11.1419 68.9921 11.0898C68.2629 10.9987 67.5337 10.9531 66.8046 10.9531C66.6483 10.9531 66.3 10.9661 65.7596 10.9922C65.2193 11.0182 64.8319 11.041 64.5975 11.0605C64.5715 11.7832 64.5519 12.4603 64.5389 13.0918L64.4999 16.3926C65.2616 16.4316 65.9615 16.4512 66.5995 16.4512C67.3742 16.4512 68.035 16.4154 68.5819 16.3438C68.7902 16.3177 68.9237 16.2656 68.9823 16.1875C69.0409 16.1094 69.093 15.8424 69.1385 15.3867L69.1971 14.7031H69.7831V14.8887L69.7342 16.9199L69.7831 19.1953H69.0995L69.0702 18.5312C69.0572 18.0495 69.0116 17.75 68.9335 17.6328C68.8618 17.5156 68.7219 17.4342 68.5135 17.3887C68.1424 17.3105 67.423 17.2715 66.3553 17.2715C65.9191 17.2715 65.3006 17.2878 64.4999 17.3203C64.4673 17.9714 64.451 18.9382 64.451 20.2207C64.451 21.4251 64.4673 22.3398 64.4999 22.9648C65.4374 23.0365 66.4888 23.0723 67.6542 23.0723C68.481 23.0723 69.0702 23.0462 69.4217 22.9941C69.7733 22.9421 70.0988 22.8542 70.3983 22.7305C70.4764 22.5286 70.5546 22.2552 70.6327 21.9102C70.7759 21.3307 70.8703 20.8945 70.9159 20.6016H71.5604C71.3911 21.9167 71.3065 23.0072 71.3065 23.873C70.7466 23.9577 70.0663 24 69.2655 24L63.4354 23.9219C63.3508 23.9219 62.4979 23.9479 60.8768 24ZM72.931 21.0508H73.5169C73.5234 21.4284 73.543 21.7279 73.5755 21.9492C73.6081 22.1706 73.6634 22.3887 73.7415 22.6035C73.8197 22.8118 73.9401 22.9909 74.1029 23.1406C74.2656 23.2839 74.4414 23.3978 74.6302 23.4824C74.8255 23.5605 75.0208 23.6126 75.2161 23.6387C75.418 23.6647 75.7207 23.6777 76.1244 23.6777C76.7884 23.6777 77.332 23.502 77.7552 23.1504C78.1849 22.7988 78.3997 22.3171 78.3997 21.7051C78.3997 21.4316 78.3314 21.1908 78.1947 20.9824C78.0645 20.7741 77.8724 20.6113 77.6185 20.4941C77.3711 20.377 76.834 20.224 76.0072 20.0352C75.1803 19.8464 74.6465 19.7096 74.4056 19.625C74.041 19.4883 73.7513 19.3223 73.5365 19.127C73.3216 18.9316 73.1491 18.6842 73.0189 18.3848C72.8952 18.0853 72.8333 17.7598 72.8333 17.4082C72.8333 16.8939 72.9668 16.4219 73.2337 15.9922C73.5072 15.556 73.9336 15.2044 74.513 14.9375C75.0924 14.6641 75.724 14.5273 76.4076 14.5273C76.8177 14.5273 77.293 14.5859 77.8333 14.7031C78.3737 14.8138 78.8132 14.9538 79.1517 15.123C79.1061 15.8457 79.0736 16.5814 79.054 17.3301H78.4974C78.4648 16.8548 78.4258 16.5423 78.3802 16.3926C78.3411 16.2428 78.2858 16.1094 78.2142 15.9922C78.1426 15.875 78.0189 15.7513 77.8431 15.6211C77.6673 15.4844 77.4395 15.3639 77.1595 15.2598C76.8861 15.1556 76.5475 15.1035 76.1439 15.1035C75.571 15.1035 75.1087 15.2728 74.7572 15.6113C74.4121 15.9499 74.2396 16.347 74.2396 16.8027C74.2396 17.0566 74.2884 17.2747 74.3861 17.457C74.4902 17.6393 74.627 17.7891 74.7962 17.9062C74.9655 18.0169 75.2031 18.1178 75.5091 18.209L77.1302 18.6094C77.9505 18.8177 78.5137 18.9967 78.8197 19.1465C79.1322 19.2962 79.3828 19.5306 79.5716 19.8496C79.7604 20.1621 79.8548 20.5397 79.8548 20.9824C79.8548 21.8613 79.4902 22.6296 78.7611 23.2871C78.0384 23.9382 77.0684 24.2637 75.8509 24.2637C75.291 24.2637 74.5456 24.179 73.6146 24.0098C73.1003 23.9121 72.8236 23.8438 72.7845 23.8047C72.7585 23.7852 72.7454 23.7526 72.7454 23.707C72.7454 23.6615 72.752 23.6061 72.765 23.541C72.8236 23.2611 72.8626 22.9876 72.8822 22.7207C72.9017 22.4538 72.918 21.8971 72.931 21.0508ZM80.5613 16.3438V15.9336C81.2124 15.6862 81.73 15.4648 82.1141 15.2695C82.1141 13.7201 82.0945 12.7305 82.0555 12.3008C82.7326 12.0664 83.2827 11.8158 83.7059 11.5488L83.9402 11.7441C83.8686 12.2845 83.7905 13.4759 83.7059 15.3184C84.2267 15.3249 84.5392 15.3281 84.6434 15.3281C84.702 15.3281 85.0372 15.3216 85.6492 15.3086C85.9878 15.3021 86.2417 15.2891 86.4109 15.2695L86.4793 15.3379L86.2742 16.2461C85.8641 16.2396 85.4865 16.2363 85.1414 16.2363C84.7964 16.2363 84.3178 16.2396 83.7059 16.2461L83.6473 20.2207C83.6277 21.1908 83.6342 21.7702 83.6668 21.959C83.6994 22.1478 83.7612 22.3138 83.8523 22.457C83.9435 22.5938 84.0607 22.7044 84.2039 22.7891C84.3537 22.8737 84.6043 22.9388 84.9559 22.9844C85.2228 22.9844 85.4376 22.9746 85.6004 22.9551C85.7697 22.929 85.9813 22.8704 86.2352 22.7793L86.3523 23.1602C86.0464 23.401 85.7501 23.6517 85.4637 23.9121C85.2163 24.0033 84.9852 24.0618 84.7703 24.0879C84.5555 24.1204 84.3081 24.1367 84.0281 24.1367C83.6831 24.1367 83.4064 24.0977 83.1981 24.0195C82.9962 23.9414 82.8107 23.834 82.6414 23.6973C82.4721 23.554 82.3322 23.375 82.2215 23.1602C82.1108 22.9453 82.0392 22.6068 82.0066 22.1445C82.0132 21.7018 82.0262 21.2168 82.0457 20.6895C82.0522 20.5853 82.0555 20.4714 82.0555 20.3477V16.2949H81.6551C81.3296 16.2949 80.965 16.3112 80.5613 16.3438ZM88.3675 17.3105L87.8499 17.1738C87.8564 17.0241 87.8596 16.819 87.8596 16.5586C87.8596 16.2852 87.8564 16.0671 87.8499 15.9043C88.6767 15.3639 89.3538 14.9993 89.8811 14.8105C90.2848 14.6738 90.7373 14.6055 91.2386 14.6055C91.9807 14.6055 92.6057 14.7454 93.1136 15.0254C93.6214 15.3053 93.999 15.7057 94.2464 16.2266C94.4156 16.5911 94.5003 17.0892 94.5003 17.7207L94.4612 19.5078V22.418C94.4612 22.7305 94.4873 22.9551 94.5393 23.0918C94.5784 23.1895 94.6403 23.2611 94.7249 23.3066C94.79 23.3457 94.9267 23.3717 95.135 23.3848L95.7698 23.4434V24C95.236 23.9544 94.7672 23.9316 94.3636 23.9316C93.9729 23.9316 93.4521 23.9544 92.8011 24L92.8499 22.2812C91.5218 23.2839 90.734 23.8503 90.4866 23.9805C90.2392 24.1042 89.9267 24.166 89.5491 24.166C88.7613 24.166 88.1461 23.9577 87.7034 23.541C87.2672 23.1178 87.0491 22.5579 87.0491 21.8613C87.0491 21.4121 87.124 21.002 87.2737 20.6309C87.43 20.2598 87.6155 19.9668 87.8304 19.752C88.0452 19.5306 88.2633 19.3678 88.4846 19.2637C88.8623 19.0879 89.4742 18.8991 90.3206 18.6973C91.1735 18.4954 92.0165 18.3457 92.8499 18.248C92.8564 17.6296 92.7815 17.1478 92.6253 16.8027C92.469 16.4577 92.2054 16.1745 91.8343 15.9531C91.4632 15.7318 91.0107 15.6211 90.4768 15.6211C90.0927 15.6211 89.7542 15.6732 89.4612 15.7773C89.1748 15.8815 88.999 15.9694 88.9339 16.041L88.7581 16.3926C88.5823 16.7832 88.4521 17.0892 88.3675 17.3105ZM92.8499 18.8438C92.0035 18.987 91.2809 19.1465 90.6819 19.3223C90.083 19.498 89.6598 19.6803 89.4124 19.8691C89.2626 19.9798 89.1324 20.1458 89.0218 20.3672C88.8525 20.6927 88.7679 21.054 88.7679 21.4512C88.7679 21.9329 88.9013 22.3105 89.1682 22.584C89.4352 22.8509 89.8063 22.9844 90.2815 22.9844C90.7177 22.9844 91.1474 22.8607 91.5706 22.6133C92.0003 22.3594 92.4267 21.9818 92.8499 21.4805V18.8438ZM96.3103 16.3438V15.9336C96.9613 15.6862 97.4789 15.4648 97.863 15.2695C97.863 13.7201 97.8435 12.7305 97.8044 12.3008C98.4815 12.0664 99.0317 11.8158 99.4548 11.5488L99.6892 11.7441C99.6176 12.2845 99.5395 13.4759 99.4548 15.3184C99.9757 15.3249 100.288 15.3281 100.392 15.3281C100.451 15.3281 100.786 15.3216 101.398 15.3086C101.737 15.3021 101.991 15.2891 102.16 15.2695L102.228 15.3379L102.023 16.2461C101.613 16.2396 101.235 16.2363 100.89 16.2363C100.545 16.2363 100.067 16.2396 99.4548 16.2461L99.3962 20.2207C99.3767 21.1908 99.3832 21.7702 99.4158 21.959C99.4483 22.1478 99.5102 22.3138 99.6013 22.457C99.6925 22.5938 99.8097 22.7044 99.9529 22.7891C100.103 22.8737 100.353 22.9388 100.705 22.9844C100.972 22.9844 101.187 22.9746 101.349 22.9551C101.519 22.929 101.73 22.8704 101.984 22.7793L102.101 23.1602C101.795 23.401 101.499 23.6517 101.213 23.9121C100.965 24.0033 100.734 24.0618 100.519 24.0879C100.304 24.1204 100.057 24.1367 99.7771 24.1367C99.432 24.1367 99.1554 24.0977 98.947 24.0195C98.7452 23.9414 98.5597 23.834 98.3904 23.6973C98.2211 23.554 98.0811 23.375 97.9705 23.1602C97.8598 22.9453 97.7882 22.6068 97.7556 22.1445C97.7621 21.7018 97.7751 21.2168 97.7947 20.6895C97.8012 20.5853 97.8044 20.4714 97.8044 20.3477V16.2949H97.4041C97.0785 16.2949 96.714 16.3112 96.3103 16.3438ZM110.63 22.4863L110.318 23.1895C109.868 23.4694 109.54 23.6549 109.331 23.7461C109.025 23.8828 108.674 23.9967 108.277 24.0879C107.886 24.1855 107.473 24.2344 107.036 24.2344C106.177 24.2344 105.399 24.0553 104.702 23.6973C104.006 23.3392 103.462 22.8053 103.072 22.0957C102.687 21.3796 102.495 20.543 102.495 19.5859C102.495 18.8372 102.596 18.1634 102.798 17.5645C103.006 16.959 103.241 16.513 103.501 16.2266C103.69 16.0182 103.983 15.7806 104.38 15.5137C104.777 15.2402 105.171 15.0254 105.562 14.8691C106.076 14.6543 106.633 14.5469 107.232 14.5469C107.961 14.5469 108.618 14.7129 109.204 15.0449C109.797 15.377 110.23 15.8294 110.503 16.4023C110.777 16.9753 110.913 17.623 110.913 18.3457C110.913 18.528 110.9 18.7493 110.874 19.0098C110.405 19.1009 109.986 19.1595 109.614 19.1855C108.911 19.2376 108.208 19.2637 107.505 19.2637H104.37C104.383 20.1947 104.543 20.9499 104.849 21.5293C105.161 22.1022 105.588 22.5254 106.128 22.7988C106.675 23.0723 107.241 23.209 107.827 23.209C108.225 23.209 108.618 23.1471 109.009 23.0234C109.406 22.8932 109.894 22.6589 110.474 22.3203L110.63 22.4863ZM104.37 18.4922C104.553 18.5117 104.898 18.5312 105.405 18.5508C106.376 18.5833 107.043 18.5996 107.407 18.5996C108.273 18.5996 108.843 18.5833 109.116 18.5508C109.123 18.3945 109.126 18.2741 109.126 18.1895C109.126 17.1608 108.918 16.4056 108.501 15.9238C108.085 15.4421 107.528 15.2012 106.831 15.2012C106.096 15.2012 105.503 15.4648 105.054 15.9922C104.605 16.5195 104.377 17.3529 104.37 18.4922Z" fill="white"/>
<path d="M21 10.7343V23.3464L13.7273 24V16.8125H8.27273V24L1 23.3464V23.2812V10.7343L11 1L21 10.7343Z" fill="#13132B" stroke="white" stroke-linecap="round" stroke-linejoin="bevel"/>
</svg>
