<svg width="10" height="14" viewBox="0 0 10 14" fill="none" xmlns="http://www.w3.org/2000/svg">
<path d="M3.75 1.80457e-07C3.49139 -0.00014217 3.23911 0.0839368 3.02792 0.24065C2.81674 0.397363 2.65703 0.618994 2.57083 0.875H1.25C0.918479 0.875 0.600537 1.01328 0.366116 1.25942C0.131696 1.50556 0 1.8394 0 2.1875V12.6875C0 13.0356 0.131696 13.3694 0.366116 13.6156C0.600537 13.8617 0.918479 14 1.25 14H8.75C9.08152 14 9.39946 13.8617 9.63388 13.6156C9.8683 13.3694 10 13.0356 10 12.6875V2.1875C10 1.8394 9.8683 1.50556 9.63388 1.25942C9.39946 1.01328 9.08152 0.875 8.75 0.875H7.42917C7.34296 0.618994 7.18326 0.397363 6.97207 0.24065C6.76089 0.0839368 6.50861 -0.00014217 6.25 1.80457e-07H3.75ZM3.33333 1.3125C3.33333 1.19647 3.37723 1.08519 3.45537 1.00314C3.53351 0.921094 3.63949 0.875 3.75 0.875H6.25C6.36051 0.875 6.46649 0.921094 6.54463 1.00314C6.62277 1.08519 6.66667 1.19647 6.66667 1.3125C6.66667 1.42853 6.62277 1.53981 6.54463 1.62186C6.46649 1.70391 6.36051 1.75 6.25 1.75H3.75C3.63949 1.75 3.53351 1.70391 3.45537 1.62186C3.37723 1.53981 3.33333 1.42853 3.33333 1.3125ZM4.46167 5.12225L3.00333 6.6535C2.92742 6.73311 2.82519 6.77891 2.71792 6.78135C2.61066 6.7838 2.50663 6.7427 2.4275 6.66663L1.8025 6.06725C1.76003 6.02913 1.72529 5.98244 1.70036 5.92994C1.67542 5.87745 1.6608 5.82022 1.65735 5.76167C1.6539 5.70312 1.66171 5.64444 1.68029 5.58911C1.69888 5.53379 1.72788 5.48296 1.76556 5.43964C1.80323 5.39633 1.84882 5.36141 1.89961 5.33697C1.9504 5.31252 2.00535 5.29905 2.0612 5.29736C2.11705 5.29567 2.17265 5.30579 2.22469 5.32711C2.27674 5.34844 2.32417 5.38054 2.36417 5.4215L2.695 5.73825L3.87167 4.50275C3.91041 4.46207 3.9564 4.42981 4.00701 4.40779C4.05763 4.38578 4.11188 4.37445 4.16667 4.37445C4.22145 4.37445 4.2757 4.38578 4.32632 4.40779C4.37694 4.42981 4.42293 4.46207 4.46167 4.50275C4.50041 4.54343 4.53114 4.59172 4.5521 4.64486C4.57307 4.69801 4.58386 4.75497 4.58386 4.8125C4.58386 4.87003 4.57307 4.92699 4.5521 4.98014C4.53114 5.03328 4.50041 5.08157 4.46167 5.12225ZM4.46167 8.87775C4.50047 8.91839 4.53125 8.96667 4.55226 9.01982C4.57327 9.07297 4.58408 9.12995 4.58408 9.1875C4.58408 9.24505 4.57327 9.30203 4.55226 9.35518C4.53125 9.40833 4.50047 9.45661 4.46167 9.49725L3.00333 11.0285C2.92742 11.1081 2.82519 11.1539 2.71792 11.1564C2.61066 11.1588 2.50663 11.1177 2.4275 11.0416L1.8025 10.4423C1.72509 10.363 1.68007 10.2552 1.67695 10.1417C1.67383 10.0282 1.71286 9.91788 1.78578 9.83404C1.8587 9.7502 1.95981 9.69941 2.06774 9.6924C2.17567 9.6854 2.28197 9.72273 2.36417 9.7965L2.695 10.1141L3.87167 8.87775C3.91037 8.83701 3.95635 8.80468 4.00697 8.78263C4.05759 8.76057 4.11186 8.74922 4.16667 8.74922C4.22147 8.74922 4.27574 8.76057 4.32636 8.78263C4.37698 8.80468 4.42296 8.83701 4.46167 8.87775ZM5.83333 9.625H7.91667C8.02717 9.625 8.13315 9.67109 8.21129 9.75314C8.28943 9.83519 8.33333 9.94647 8.33333 10.0625C8.33333 10.1785 8.28943 10.2898 8.21129 10.3719C8.13315 10.4539 8.02717 10.5 7.91667 10.5H5.83333C5.72283 10.5 5.61685 10.4539 5.5387 10.3719C5.46057 10.2898 5.41667 10.1785 5.41667 10.0625C5.41667 9.94647 5.46057 9.83519 5.5387 9.75314C5.61685 9.67109 5.72283 9.625 5.83333 9.625ZM5.41667 5.6875C5.41667 5.57147 5.46057 5.46019 5.5387 5.37814C5.61685 5.29609 5.72283 5.25 5.83333 5.25H7.91667C8.02717 5.25 8.13315 5.29609 8.21129 5.37814C8.28943 5.46019 8.33333 5.57147 8.33333 5.6875C8.33333 5.80353 8.28943 5.91481 8.21129 5.99686C8.13315 6.07891 8.02717 6.125 7.91667 6.125H5.83333C5.72283 6.125 5.61685 6.07891 5.5387 5.99686C5.46057 5.91481 5.41667 5.80353 5.41667 5.6875Z" fill="#9769CC"/>
</svg>
